<svg id="twitter" xmlns="http://www.w3.org/2000/svg" width="25.625" height="25.6" viewBox="0 0 25.625 25.6">
  <defs>
    <style>
      .cls-1 {
        fill: #26a6d1;
      }

      .cls-2 {
        fill: #fff;
        fill-rule: evenodd;
      }
    </style>
  </defs>
  <circle id="base" class="cls-1" cx="12.813" cy="12.8" r="12.813"/>
  <path id="bird" class="cls-2" d="M655,10340.8a5.475,5.475,0,0,1-1.792.5,3.22,3.22,0,0,0,1.372-1.7,6.777,6.777,0,0,1-1.981.8,3.151,3.151,0,0,0-2.276-1,3.1,3.1,0,0,0-3.12,3,2.567,2.567,0,0,0,.081.7,8.91,8.91,0,0,1-6.43-3.1,2.643,2.643,0,0,0-.422,1.5,2.979,2.979,0,0,0,1.388,2.5,3.349,3.349,0,0,1-1.413-.4v0.1a3.055,3.055,0,0,0,2.5,2.9,2.259,2.259,0,0,1-.822.1H641.5a3.081,3.081,0,0,0,2.914,2.1,6.461,6.461,0,0,1-3.874,1.3,1.894,1.894,0,0,1-.744-0.1,8.876,8.876,0,0,0,13.656-7.2c0-.1,0-0.3-0.008-0.4A6.06,6.06,0,0,0,655,10340.8Z" transform="translate(-634.188 -10332.2)"/>
</svg>
