<svg id="vimeo" xmlns="http://www.w3.org/2000/svg" width="25.625" height="25.6" viewBox="0 0 25.625 25.6">
  <defs>
    <style>
      .cls-1 {
        fill: #86c9ef;
      }

      .cls-2 {
        fill: #fff;
        fill-rule: evenodd;
      }
    </style>
  </defs>
  <circle id="base" class="cls-1" cx="12.813" cy="12.8" r="12.813"/>
  <path id="v" class="cls-2" d="M747.8,10342.6c1.2-1,2.9-3.1,4.226-3.1s1.651,1.6,1.832,3c0.182,1.5.7,4.6,1.4,4.6s2.3-2.8,2.211-3.9c-0.091-1-1.248-.9-1.885-0.5,0.585-2.2,1.937-3.3,3.666-3.3s2.146,1.2,2.146,2.7c0,2.3-4.629,9.3-7.424,9.3-1.73,0-2.158-2.5-2.509-3.8s-1.041-4.6-1.847-4.8a3.993,3.993,0,0,0-1.2.7Z" transform="translate(-742.188 -10332.2)"/>
</svg>
